<?xml version="1.0" encoding="utf-8"?>
<!-- Generator: Adobe Illustrator 24.0.2, SVG Export Plug-In . SVG Version: 6.00 Build 0)  -->
<svg version="1.1" id="Layer_1" xmlns="http://www.w3.org/2000/svg" xmlns:xlink="http://www.w3.org/1999/xlink" x="0px" y="0px"
	 viewBox="0 0 384 512" style="enable-background:new 0 0 384 512;" xml:space="preserve">
<style type="text/css">
	.st0{fill:#D42123;}
	.st1{fill:#FFFFFF;}
	.st2{fill:none;stroke:#D42123;stroke-width:7;stroke-miterlimit:10;}
</style>
<path class="st0" d="M377.7,192.1c0,84.5-113.1,235-162.8,297.1c-11.9,14.8-33.9,14.8-45.8,0C119.5,427.1,6.3,276.6,6.3,192.1
	C6.3,89.6,89.5,6.4,192,6.4S377.7,89.6,377.7,192.1z"/>
<circle class="st1" cx="192" cy="186.5" r="112.4"/>
<g>
	<path class="st2" d="M197.4,110.4"/>
	<path class="st2" d="M191.9,116"/>
	<path class="st2" d="M231.1,262.4h-78.2c-8.1,0-14.6-6.5-14.6-14.6V125.1c0-8.1,6.5-14.6,14.6-14.6h78.2c8.1,0,14.6,6.5,14.6,14.6
		v122.7C245.7,255.8,239.2,262.4,231.1,262.4z"/>
	<path class="st0" d="M175.9,108.6c0-8.6,4.8-18.5,15.7-18.5s15.7,9.9,15.7,18.5"/>
	<ellipse class="st1" cx="191.4" cy="100.1" rx="5.8" ry="6"/>
	<path class="st0" d="M229.7,253.1h-75.3c-3.5,0-6.3-2.8-6.3-6.3v-63.8h87.8v63.8C235.9,250.3,233.1,253.1,229.7,253.1z"/>
	<ellipse class="st1" cx="192" cy="198.8" rx="32" ry="35.1"/>
	<path class="st0" d="M192,227.8c-15.1,0-27.3-13.8-27.3-30.8c0-14.6,18.5-42.1,23.7-49.5c0.9-1.2,2.1-1.9,3.5-1.9h0.3
		c1.4,0,2.6,0.7,3.5,1.9c5.2,7.4,23.7,34.8,23.7,49.5C219.3,214,207.1,227.8,192,227.8z M178.4,199.5c0-1.4-1-2.6-2.3-2.6
		c-1.3,0-2.3,1.2-2.3,2.6c0,9.9,7.1,18,15.9,18c1.3,0,2.3-1.2,2.3-2.6c0-1.4-1-2.6-2.3-2.6C183.5,212.4,178.4,206.6,178.4,199.5z"/>
	<rect x="179.6" y="264.2" class="st0" width="24.7" height="5.9"/>
	<rect x="189.5" y="268.6" class="st0" width="4.9" height="8"/>
	<path class="st0" d="M184.6,279.5c0-4.1,3.3-7.4,7.4-7.4s7.4,3.3,7.4,7.4"/>
	<path class="st0" d="M184.6,281"/>
</g>
</svg>
